<svg width="199" height="43" viewBox="0 0 199 43" fill="none" xmlns="http://www.w3.org/2000/svg">
<g filter="url(#filter0_i_134_260)">
<path d="M19.5 0L0 21L19.5 42.5H182.5L199 21L178.5 0H19.5Z" fill="#0830AA"/>
</g>
<path d="M81.5881 13.9545H84.6278V24.0966C84.6278 25.0341 84.4171 25.8485 83.9957 26.5398C83.5791 27.2311 82.9991 27.7637 82.2557 28.1378C81.5123 28.5118 80.6482 28.6989 79.6634 28.6989C78.7874 28.6989 77.992 28.545 77.277 28.2372C76.5668 27.9247 76.0033 27.4512 75.5866 26.8168C75.17 26.1776 74.964 25.375 74.9688 24.4091H78.0298C78.0393 24.7926 78.1174 25.1217 78.2642 25.3963C78.4157 25.6662 78.6217 25.8745 78.8821 26.0213C79.1473 26.1634 79.4598 26.2344 79.8196 26.2344C80.1984 26.2344 80.518 26.1539 80.7784 25.9929C81.0436 25.8272 81.2448 25.5857 81.3821 25.2685C81.5194 24.9512 81.5881 24.5606 81.5881 24.0966V13.9545ZM92.0852 28.7131C90.9631 28.7131 89.9972 28.4858 89.1875 28.0312C88.3826 27.572 87.7623 26.9233 87.3267 26.0852C86.8911 25.2424 86.6733 24.2457 86.6733 23.0952C86.6733 21.973 86.8911 20.9882 87.3267 20.1406C87.7623 19.2931 88.3755 18.6326 89.1662 18.1591C89.9616 17.6856 90.8944 17.4489 91.9645 17.4489C92.6842 17.4489 93.3542 17.5649 93.9744 17.7969C94.5994 18.0241 95.1439 18.3674 95.608 18.8267C96.0767 19.286 96.4413 19.8636 96.7017 20.5597C96.9621 21.2509 97.0923 22.0606 97.0923 22.9886V23.8196H87.8807V21.9446H94.2443C94.2443 21.509 94.1496 21.1231 93.9602 20.7869C93.7708 20.4508 93.508 20.188 93.1719 19.9986C92.8404 19.8045 92.4545 19.7074 92.0142 19.7074C91.5549 19.7074 91.1477 19.8139 90.7926 20.027C90.4422 20.2353 90.1676 20.517 89.9688 20.8722C89.7699 21.2225 89.6681 21.6132 89.6634 22.044V23.8267C89.6634 24.3665 89.7628 24.8329 89.9616 25.2259C90.1652 25.6188 90.4517 25.9219 90.821 26.1349C91.1903 26.348 91.6283 26.4545 92.1349 26.4545C92.4711 26.4545 92.7789 26.4072 93.0582 26.3125C93.3376 26.2178 93.5767 26.0758 93.7756 25.8864C93.9744 25.697 94.1259 25.465 94.2301 25.1903L97.0284 25.375C96.8864 26.0473 96.5952 26.6345 96.1548 27.1364C95.7192 27.6335 95.1558 28.0218 94.4645 28.3011C93.7779 28.5758 92.9848 28.7131 92.0852 28.7131ZM108.143 20.7017L105.374 20.8722C105.326 20.6354 105.224 20.4223 105.068 20.233C104.912 20.0388 104.706 19.8849 104.45 19.7713C104.199 19.6529 103.899 19.5938 103.548 19.5938C103.08 19.5938 102.684 19.6932 102.362 19.892C102.04 20.0862 101.879 20.3466 101.879 20.6733C101.879 20.9337 101.983 21.1539 102.192 21.3338C102.4 21.5137 102.758 21.6581 103.264 21.767L105.239 22.1648C106.299 22.3826 107.09 22.733 107.611 23.2159C108.132 23.6989 108.392 24.3333 108.392 25.1193C108.392 25.8343 108.181 26.4616 107.76 27.0014C107.343 27.5412 106.77 27.9626 106.041 28.2656C105.317 28.5639 104.481 28.7131 103.534 28.7131C102.09 28.7131 100.939 28.4124 100.082 27.8111C99.2301 27.205 98.7306 26.3812 98.5838 25.3395L101.56 25.1832C101.65 25.6236 101.867 25.9598 102.213 26.1918C102.559 26.419 103.001 26.5327 103.541 26.5327C104.071 26.5327 104.498 26.4309 104.82 26.2273C105.146 26.0189 105.312 25.7514 105.317 25.4247C105.312 25.1501 105.196 24.9252 104.969 24.75C104.741 24.5701 104.391 24.4328 103.918 24.3381L102.028 23.9616C100.963 23.7486 100.17 23.3793 99.6491 22.8537C99.133 22.3281 98.875 21.6581 98.875 20.8438C98.875 20.143 99.0644 19.5393 99.4432 19.0327C99.8267 18.526 100.364 18.1354 101.055 17.8608C101.751 17.5862 102.566 17.4489 103.499 17.4489C104.876 17.4489 105.961 17.7401 106.751 18.3224C107.547 18.9048 108.011 19.6979 108.143 20.7017ZM119.374 20.7017L116.604 20.8722C116.557 20.6354 116.455 20.4223 116.299 20.233C116.142 20.0388 115.936 19.8849 115.681 19.7713C115.43 19.6529 115.129 19.5938 114.779 19.5938C114.31 19.5938 113.915 19.6932 113.593 19.892C113.271 20.0862 113.11 20.3466 113.11 20.6733C113.11 20.9337 113.214 21.1539 113.422 21.3338C113.631 21.5137 113.988 21.6581 114.495 21.767L116.469 22.1648C117.53 22.3826 118.32 22.733 118.841 23.2159C119.362 23.6989 119.623 24.3333 119.623 25.1193C119.623 25.8343 119.412 26.4616 118.99 27.0014C118.574 27.5412 118.001 27.9626 117.272 28.2656C116.547 28.5639 115.712 28.7131 114.765 28.7131C113.32 28.7131 112.17 28.4124 111.313 27.8111C110.461 27.205 109.961 26.3812 109.814 25.3395L112.79 25.1832C112.88 25.6236 113.098 25.9598 113.444 26.1918C113.789 26.419 114.232 26.5327 114.772 26.5327C115.302 26.5327 115.728 26.4309 116.05 26.2273C116.377 26.0189 116.542 25.7514 116.547 25.4247C116.542 25.1501 116.426 24.9252 116.199 24.75C115.972 24.5701 115.622 24.4328 115.148 24.3381L113.259 23.9616C112.194 23.7486 111.4 23.3793 110.88 22.8537C110.364 22.3281 110.105 21.6581 110.105 20.8438C110.105 20.143 110.295 19.5393 110.674 19.0327C111.057 18.526 111.595 18.1354 112.286 17.8608C112.982 17.5862 113.796 17.4489 114.729 17.4489C116.107 17.4489 117.191 17.7401 117.982 18.3224C118.777 18.9048 119.241 19.6979 119.374 20.7017Z" fill="white"/>
<defs>
<filter id="filter0_i_134_260" x="0" y="0" width="199" height="43.5" filterUnits="userSpaceOnUse" color-interpolation-filters="sRGB">
<feFlood flood-opacity="0" result="BackgroundImageFix"/>
<feBlend mode="normal" in="SourceGraphic" in2="BackgroundImageFix" result="shape"/>
<feColorMatrix in="SourceAlpha" type="matrix" values="0 0 0 0 0 0 0 0 0 0 0 0 0 0 0 0 0 0 127 0" result="hardAlpha"/>
<feOffset dy="1"/>
<feGaussianBlur stdDeviation="2.3"/>
<feComposite in2="hardAlpha" operator="arithmetic" k2="-1" k3="1"/>
<feColorMatrix type="matrix" values="0 0 0 0 1 0 0 0 0 1 0 0 0 0 1 0 0 0 0.5 0"/>
<feBlend mode="normal" in2="shape" result="effect1_innerShadow_134_260"/>
</filter>
</defs>
</svg>
