<svg width="64" height="64" viewBox="0 0 64 64" fill="none" xmlns="http://www.w3.org/2000/svg">
<g clip-path="url(#clip0_346_268)">
<path d="M41.8823 26.6471C40.2354 20.0588 42.2941 11.549 43.9412 6.47058C40.2354 9.35293 38.8212 15.1342 38.5883 16.7647C37.7648 22.5294 37.7648 23.7647 40.2354 33.6471C42.7059 43.5294 40.2354 49.2941 36.9412 50.9412C34.4706 52.1765 27.4706 55.0588 23.7648 48.4706C19.9345 41.6612 25.4118 39.8235 26.2353 39.8235C27.0589 39.8235 28.2942 39.8235 29.5295 42.7059C30.7648 45.5882 25.5742 45.5882 27.0589 45.5882C27.0589 45.5882 33.2354 47.647 32 42.7059C31.0117 38.7529 27.7451 37.4902 26.2353 37.3529C25 37.0784 22.0353 37.4353 20.0588 41.0588C18.0824 44.6823 19.7843 49.7059 20.8824 51.7647C22.5294 54.2353 27.0588 59.0118 32 58.3529C38.1764 57.5294 40.2354 55.8823 43.1176 50.9412C46.3981 45.3174 43.4614 32.9633 41.8823 26.6471Z" fill="#0087CD" stroke="#0087CD" stroke-width="2"/>
</g>
<defs>
<clipPath id="clip0_346_268">
<rect width="28" height="56" fill="white" transform="translate(18 4)"/>
</clipPath>
</defs>
</svg>
