<svg width="34" height="68" viewBox="0 0 34 68" fill="none" xmlns="http://www.w3.org/2000/svg">
<path d="M28.9999 27.5C27 19.5 29.4999 9.16667 31.4999 3C27 6.5 25.2828 13.5201 25 15.5C24 22.5 24 24 27 36C30 48 27 55 23 57C20 58.5 11.5 62 6.99999 54C2.34897 45.7315 8.99999 43.5 9.99999 43.5C11 43.5 12.5 43.5 14 47C15.5 50.5 9.19723 50.5 11 50.5C11 50.5 18.5 53 16.9999 47C15.7999 42.2 11.8333 40.6667 9.99999 40.5C8.49997 40.1667 4.89994 40.6 2.49994 45C0.0999452 49.4 2.16661 55.5 3.49994 58C5.49994 61 10.9999 66.8 16.9999 66C24.4999 65 27 63 30.4999 57C34.4833 50.1712 30.9173 35.1697 28.9999 27.5Z" fill="#0087CD" stroke="#0087CD" stroke-width="2"/>
</svg>
